Simulation
nRows=48
nColumns=15
endheader
time  TH_x TH_y TH_z SC_y  SC_z  SC_x  AC_y  AC_z  AC_x  GH_y  GH_z  GH_yy  EL_x  PS_y
0.75  0.000000  0.000000  0.000000  -34.772713936284894  15.869246897619677  17.95342076114661  38.71644654705238  -24.832650990245963  28.667822349112356  16.525557143474717  32.43120829407951  -14.715756504845555  20.03512506608351  0.000000
0.765  0.000000  0.000000  0.000000  -34.773660861448555  15.854285975789434  17.94821725451634  38.770544997301094  -24.800510073197163  28.711876925166912  16.959499336449852  32.75163388627642  -14.993559157902583  19.867245697248986  0.000000
0.78  0.000000  0.000000  0.000000  -34.83161972777614  15.903455174961612  18.000019001373587  38.799026823178934  -24.76496841688524  28.717450913205465  17.79509051894037  32.844477108746815  -17.01413896256764  19.72951179623954  0.000000
0.7949999999999999  0.000000  0.000000  0.000000  -34.88002434832991  15.887579624168092  18.008067595749587  38.8306979498222  -24.76667838794065  28.749766126647565  18.36292447495363  33.13904403343195  -17.794686558860718  19.526226451588197  0.000000
0.8099999999999999  0.000000  0.000000  0.000000  -34.89915713425147  15.843844416124332  17.97593652208  38.84256079010719  -24.748984417722717  28.771682363423317  18.6959388086125  33.54675075220202  -17.631372279232856  19.306693072116563  0.000000
0.825  0.000000  0.000000  0.000000  -34.932093448985576  15.836108682140022  17.967207508572116  38.867147286505165  -24.725732900735583  28.79443460415864  19.10715912981063  33.8846967264331  -18.028753940159824  19.11903346405782  0.000000
0.84  0.000000  0.000000  0.000000  -34.98884461368492  15.840802366702516  17.975764976047518  38.87815698041127  -24.702125021662287  28.80253432168974  19.580934597454203  34.17496644361401  -18.81099971948896  18.93161897155507  0.000000
0.855  0.000000  0.000000  0.000000  -35.04936844363791  15.831645984842586  17.9746220160962  38.89914807054113  -24.692871016520147  28.823364355779734  19.97285579666163  34.51386568913823  -19.30993499412392  18.730782708973823  0.000000
0.87  0.000000  0.000000  0.000000  -35.102344125448674  15.817758925273552  17.962505752418203  38.90379977587332  -24.670456253873507  28.83230667939412  20.289854890040075  34.86728468430517  -19.60776922395291  18.530339719849877  0.000000
0.885  0.000000  0.000000  0.000000  -35.16136064581107  15.811137729212584  17.95458210325863  38.919997068120466  -24.652618663353426  28.850084629632537  20.5928095741785  35.21402544356061  -19.970311483680508  18.335469502360468  0.000000
0.8999999999999999  0.000000  0.000000  0.000000  -35.228031017932715  15.805635099129123  17.949209702063467  38.92404049088318  -24.62753883261759  28.85783313185524  20.877749013462473  35.54378398850174  -20.361587003582105  18.1417319416125  0.000000
0.9149999999999999  0.000000  0.000000  0.000000  -35.30042637557967  15.798061663253499  17.94414974021207  38.941464849160916  -24.611369642398426  28.876095175018538  21.13074075759934  35.88225887883826  -20.698425429351655  17.94906049752604  0.000000
0.9299999999999999  0.000000  0.000000  0.000000  -35.37371011603841  15.790718822487982  17.935786701186522  38.94657048734982  -24.586731069363108  28.88491697499526  21.35359043552115  36.21012880645738  -20.99479316183142  17.76089232295376  0.000000
0.945  0.000000  0.000000  0.000000  -35.45719405458156  15.785644452055466  17.93020194419444  38.96446133119421  -24.570317215545387  28.90298581596224  21.567549884334415  36.534560330024256  -21.288342919815822  17.57720966387204  0.000000
0.96  0.000000  0.000000  0.000000  -35.551767900082204  15.782002181183842  17.929773710383675  38.97017878477928  -24.545630639143052  28.91042448055551  21.772390585897043  36.83313824528747  -21.57480933666542  17.399143685591255  0.000000
0.975  0.000000  0.000000  0.000000  -35.65580223372165  15.77898006838262  17.939546895720554  38.99231793618294  -24.532689067757477  28.924931749061287  21.967238411760157  37.12841168658604  -21.846755026492144  17.226927639435953  0.000000
0.99  0.000000  0.000000  0.000000  -35.767419534676534  15.776387258092873  17.963460703173013  39.00351511749156  -24.516041461521347  28.92348745340402  22.15237722639762  37.398612998360875  -22.10496567801152  17.06076746989607  0.000000
1.005  0.000000  0.000000  0.000000  -35.88682048387164  15.777586929201286  17.991981329646148  39.03186475335116  -24.513775023001003  28.934401924589384  22.334920410846024  37.66641904764234  -22.355749258163133  16.903490154992113  0.000000
1.02  0.000000  0.000000  0.000000  -36.00800519985056  15.777512004152088  18.023873682216088  39.04559366195576  -24.502183664855387  28.93157013425184  22.516644741441446  37.9089671027068  -22.600970632794926  16.75540270748877  0.000000
1.035  0.000000  0.000000  0.000000  -36.127258335534734  15.777576712197549  18.056178060548795  39.075439645528085  -24.501237573966304  28.9410006016018  22.689598438769444  38.152178296577546  -22.8345842496779  16.616882176483642  0.000000
1.05  0.000000  0.000000  0.000000  -36.24085978813658  15.777317432370207  18.088798410195874  39.090955903636875  -24.492246266027358  28.938996985758997  22.854011903942574  38.37270001988651  -23.057336236663385  16.4881455286395  0.000000
1.065  0.000000  0.000000  0.000000  -36.34968036587759  15.776480939352126  18.120471420610222  39.11951160792961  -24.491471049153045  28.947492374610274  23.01087478147093  38.59107567929836  -23.26857413733804  16.36968095571997  0.000000
1.08  0.000000  0.000000  0.000000  -36.4509218302758  15.775537410108647  18.150489354071382  39.13379590407253  -24.48186716314066  28.945874386361908  23.156161534317413  38.785859363025395  -23.466416365640892  16.262463528646965  0.000000
1.095  0.000000  0.000000  0.000000  -36.54682199714624  15.773618712049721  18.18022150937388  39.162577213234734  -24.481496641129247  28.955425551324055  23.288946366816045  38.979504464298245  -23.64822967783737  16.166034152797682  0.000000
1.1099999999999999  0.000000  0.000000  0.000000  -36.63555187189936  15.770869418667656  18.20957624722884  39.178066790205854  -24.472362463717165  28.95485249836075  23.405517417099226  39.149691696913344  -23.81202957593814  16.081225965702025  0.000000
1.125  0.000000  0.000000  0.000000  -36.718865136966414  15.767693524021885  18.238396818510477  39.209128492391315  -24.473105438182778  28.96673234372093  23.503513616939486  39.32070479619603  -23.954432546430443  16.00766208132761  0.000000
1.14  0.000000  0.000000  0.000000  -36.79516532120292  15.76300592965487  18.266388543506654  39.22589349364176  -24.463635079514425  28.96775742501072  23.581225300082306  39.46962366286609  -24.07476700527954  15.945977458706471  0.000000
1.155  0.000000  0.000000  0.000000  -36.86641188565041  15.75776745153684  18.29214710283184  39.258234135341134  -24.46323148889888  28.982202417987672  23.634251005339607  39.62306295191336  -24.168682541538132  15.895940678613727  0.000000
1.17  0.000000  0.000000  0.000000  -36.93237677536828  15.75086304375765  18.31742883491504  39.27694559938013  -24.45181204993569  28.986362401877265  23.659283159829133  39.757935373328884  -24.23566589496396  15.857671166366904  0.000000
1.185  0.000000  0.000000  0.000000  -36.99575576893922  15.743191207449085  18.34237179614151  39.31192538829952  -24.45051262383529  29.003282147423857  23.65093936397603  39.90351340039961  -24.268814195320104  15.830532534767968  0.000000
1.2  0.000000  0.000000  0.000000  -37.056374460855785  15.734492106183529  18.36740397889915  39.33392960566919  -24.439342081437477  29.009977787173778  23.605168506836637  40.038182708569906  -24.265927589643358  15.814566243828072  0.000000
1.2149999999999999  0.000000  0.000000  0.000000  -37.11731671453617  15.72550019096343  18.39060074348789  39.36849580997989  -24.436137571094413  29.027570868215538  23.523181577109312  40.189021537724265  -24.225885153260915  15.80928716071456  0.000000
1.23  0.000000  0.000000  0.000000  -37.17883477126259  15.715939527009214  18.412693280104197  39.38871257453986  -24.422045775648403  29.033979513226203  23.399115328775913  40.336659244172914  -24.148452473067913  15.814619986897554  0.000000
1.2449999999999999  0.000000  0.000000  0.000000  -37.246720564407866  15.706697364263986  18.433949303093744  39.42054956060087  -24.41617178262121  29.05023078723107  23.23679869826113  40.5076256195197  -24.03486170769695  15.828902618157276  0.000000
1.26  0.000000  0.000000  0.000000  -37.32071003234615  15.698241256196141  18.455148369285652  39.437498955198734  -24.401231214823042  29.05390734212278  23.03142441370642  40.68357391065416  -23.886097985296153  15.852243669745466  0.000000
1.275  0.000000  0.000000  0.000000  -37.406395132623246  15.691303828042985  18.476061268098036  39.46162249124315  -24.39464373261924  29.062918320816244  22.795667322730836  40.88777396511979  -23.71023164219445  15.88265133462836  0.000000
1.29  0.000000  0.000000  0.000000  -37.50406721581311  15.688281331964129  18.496391275831893  39.46516443407094  -24.3800625693676  29.05500422566941  22.532412979523173  41.09785330743373  -23.515577706567573  15.92043407249198  0.000000
1.305  0.000000  0.000000  0.000000  -37.618695775840145  15.690811616714992  18.51361596149536  39.468440003676506  -24.375039616024775  29.048325621452026  22.263707238404564  41.332376615950295  -23.31867574245451  15.964428929984978  0.000000
1.3199999999999998  0.000000  0.000000  0.000000  -37.74864879316842  15.70156655298435  18.527013669517945  39.438483125107595  -24.361873800807444  29.016036121449723  22.00816439977616  41.559469318761444  -23.141913316518135  16.014845275753068  0.000000
1.335  0.000000  0.000000  0.000000  -37.892685710315305  15.727018003543696  18.529167723824894  39.39175968259426  -24.359763903820546  28.97865208156484  21.798537046691866  41.78877756996291  -23.00901219715582  16.071670520602535  0.000000
1.3499999999999999  0.000000  0.000000  0.000000  -38.04443267325259  15.767949805105863  18.51542083324362  39.28780762794943  -24.342583380273474  28.904602038594714  21.677686472677642  41.969852505874336  -22.95923027431561  16.13634225869308  0.000000
1.365  0.000000  0.000000  0.000000  -38.19443745832684  15.834355952900621  18.48114845674416  39.14679629850178  -24.33579931611539  28.82045927603826  21.680974551710364  42.101438057954745  -23.011356207885225  16.208714238265024  0.000000
1.38  0.000000  0.000000  0.000000  -38.326035255115926  15.920287674060116  18.42015639714011  38.93795262642278  -24.31223124036588  28.69717560949096  21.86201433668446  42.12783533334829  -23.212782390164303  16.29138359196469  0.000000
1.395  0.000000  0.000000  0.000000  -38.42719605974372  16.021898379263238  18.344456129546117  38.694859009680435  -24.30312104162591  28.56214693014997  22.262154140839055  42.041047711087245  -23.580259777726354  16.373378398386205  0.000000
1.41  0.000000  0.000000  0.000000  -38.46392442343051  16.14356232007152  18.237165123042832  38.40706091927205  -24.295436761479632  28.40110157142302  22.929226551095493  41.79478516601484  -24.165293410143562  16.469047729484082  0.000000
1.425  0.000000  0.000000  0.000000  -38.430280663901584  16.239537230805833  18.132164389309906  38.122357449569286  -24.304039358934936  28.230736592726384  23.91270886692498  41.37046490928384  -24.998146818669458  16.555523397050575  0.000000
1.44  0.000000  0.000000  0.000000  -38.240282634454005  16.366640292937543  18.002681438586848  37.82401141266598  -24.323529190476656  28.051167549542882  25.21546155067659  40.70419170159684  -26.099304305625388  16.669865277377355  0.000000
1.4549999999999998  0.000000  0.000000  0.000000  -37.857150234255904  16.419876082502103  17.896077550126613  37.579749653220304  -24.32324043911989  27.857636194656227  26.85729162345795  39.76309561144756  -27.464719525492715  16.78258995721062  0.000000
